<?xml version="1.0" standalone="no"?>
<!DOCTYPE svg PUBLIC "-//W3C//DTD SVG 20010904//EN"
 "http://www.w3.org/TR/2001/REC-SVG-20010904/DTD/svg10.dtd">
<svg version="1.0" xmlns="http://www.w3.org/2000/svg"
 width="260.000000pt" height="260.000000pt" viewBox="0 0 260.000000 260.000000"
 preserveAspectRatio="xMidYMid meet">
<metadata>
Created by potrace 1.14, written by Peter Selinger 2001-2017
</metadata>
<g transform="translate(0.000000,260.000000) scale(0.100000,-0.100000)"
fill="#000000" stroke="none">
<path d="M313 2391 c-75 -35 -74 -30 -84 -505 -4 -232 -13 -654 -19 -938 -8
-371 -8 -528 0 -557 13 -51 51 -96 104 -124 l41 -22 945 0 945 0 41 22 c52 28
90 72 104 121 14 53 14 949 -1 991 -12 33 -52 61 -89 61 -37 0 -77 -28 -89
-61 -7 -22 -11 -179 -11 -485 l0 -454 -898 0 -899 0 -12 538 c-20 816 -27
1286 -21 1293 3 4 158 12 345 18 1237 42 1488 51 1491 54 2 2 -243 11 -544 20
-647 21 -1022 34 -1187 42 -104 4 -125 2 -162 -14z"/>
</g>
</svg>
