<?xml version="1.0" standalone="no"?>
<!DOCTYPE svg PUBLIC "-//W3C//DTD SVG 20010904//EN"
 "http://www.w3.org/TR/2001/REC-SVG-20010904/DTD/svg10.dtd">
<svg version="1.0" xmlns="http://www.w3.org/2000/svg"
 width="260.000000pt" height="260.000000pt" viewBox="0 0 260.000000 260.000000"
 preserveAspectRatio="xMidYMid meet">
<metadata>
Created by potrace 1.14, written by Peter Selinger 2001-2017
</metadata>
<g transform="translate(0.000000,260.000000) scale(0.100000,-0.100000)"
fill="#000000" stroke="none">
<path d="M557 2508 c-22 -18 -297 -498 -297 -520 0 -20 263 -483 292 -513 17
-19 34 -20 282 -23 l264 -3 122 -212 c67 -117 131 -220 142 -229 26 -23 50
-23 76 -1 43 37 39 49 -104 299 -76 131 -146 249 -157 262 -20 22 -23 22 -283
22 l-262 0 -107 186 c-59 103 -110 194 -112 204 -3 11 41 97 109 214 l113 196
229 -2 230 -3 126 -217 c69 -120 131 -223 138 -230 10 -10 81 -14 279 -18
l266 -5 112 -195 c62 -107 112 -197 110 -200 -1 -3 -59 -104 -129 -226 -69
-121 -126 -228 -126 -236 0 -12 162 -304 241 -434 l18 -30 -112 -195 -112
-194 -235 -3 -235 -2 -119 207 c-66 115 -128 218 -139 231 -24 26 -54 28 -85
6 -43 -30 -31 -63 114 -313 74 -130 145 -244 156 -254 20 -16 45 -18 316 -15
l295 3 16 24 c51 76 281 488 281 505 0 10 -56 117 -125 236 -69 119 -125 222
-125 228 0 7 49 97 109 200 129 223 141 246 141 268 0 19 -254 465 -287 504
l-21 25 -264 3 -264 3 -124 215 c-68 118 -133 222 -144 230 -28 19 -583 21
-609 2z"/>
</g>
</svg>
